<?xml version="1.0" standalone="no"?>
<!DOCTYPE svg PUBLIC "-//W3C//DTD SVG 20010904//EN"
 "http://www.w3.org/TR/2001/REC-SVG-20010904/DTD/svg10.dtd">
<svg version="1.0" xmlns="http://www.w3.org/2000/svg"
 width="1024.000000pt" height="1024.000000pt" viewBox="0 0 1024.000000 1024.000000"
 preserveAspectRatio="xMidYMid meet">
<metadata>
Created by potrace 1.14, written by Peter Selinger 2001-2017
</metadata>
<g transform="translate(0.000000,1024.000000) scale(0.100000,-0.100000)"
fill="#000000" stroke="none">
<path d="M5691 8014 c-46 -33 -51 -64 -51 -349 l0 -265 -159 0 c-88 0 -167 -3
-176 -6 -42 -17 -45 -43 -45 -459 l0 -395 60 0 60 0 0 -30 c0 -18 35 -97 91
-203 95 -182 116 -250 86 -276 -9 -7 -13 -19 -10 -27 3 -8 0 -14 -6 -14 -6 0
-11 -9 -11 -20 0 -11 -4 -20 -10 -20 -5 0 -10 -9 -10 -21 0 -11 -4 -17 -10
-14 -5 3 -10 -1 -10 -9 0 -9 -5 -16 -10 -16 -6 0 -9 -3 -9 -7 4 -22 -3 -43
-17 -57 -8 -9 -13 -16 -10 -16 3 0 -2 -9 -11 -19 -9 -11 -20 -18 -25 -15 -4 3
-9 -5 -10 -18 -1 -13 -4 9 -8 47 -4 47 -7 3 -8 -136 l-2 -206 -281 -7 c-155
-3 -283 -5 -284 -4 -2 2 -4 50 -6 108 l-4 105 67 5 c110 8 104 -20 100 408 -3
350 -4 368 -23 387 -19 19 -31 20 -262 17 -133 -1 -279 -2 -324 -2 -132 0
-123 30 -123 -403 0 -269 3 -366 12 -375 9 -9 -5 -12 -66 -12 l-77 0 2 158 c2
86 1 165 -2 175 -7 25 -28 37 -64 37 l-30 0 3 -185 3 -185 -536 -2 -535 -3 0
68 0 67 75 0 c43 0 75 4 75 10 0 6 -31 10 -73 10 l-74 0 -6 122 c-4 66 -7 174
-7 240 0 65 -4 118 -8 118 -9 0 -22 -325 -22 -527 l0 -103 -89 0 c-48 0 -109
-3 -135 -6 l-46 -7 0 72 c0 46 4 71 11 71 8 0 8 4 1 13 -6 7 -11 109 -14 255
l-3 242 417 0 417 0 15 22 c22 31 20 41 -6 26 -17 -10 -118 -14 -413 -16
l-390 -3 -47 25 -48 25 0 -23 c0 -13 7 -29 15 -36 13 -11 15 -49 13 -259 l-3
-246 -327 -3 c-207 -1 -328 -6 -328 -12 0 -6 118 -10 324 -10 367 0 342 7 330
-86 l-6 -52 -106 -1 c-59 -1 -108 -4 -111 -7 -2 -2 46 -4 107 -4 97 0 111 -2
116 -17 6 -19 3 -49 -5 -58 -3 -2 -142 -5 -310 -5 -167 -1 -314 -4 -326 -7
-68 -16 21 -23 312 -23 285 0 324 -2 329 -16 8 -20 8 -208 0 -256 l-7 -38
-233 0 c-229 0 -233 0 -248 -22 -26 -36 -21 -104 10 -134 l25 -26 225 5 224 5
0 -109 c0 -64 -4 -108 -9 -105 -15 9 -721 -6 -721 -16 0 -4 164 -8 365 -8
l365 0 0 -136 0 -135 -58 1 c-95 3 -122 0 -122 -10 0 -6 37 -10 90 -10 l90 0
0 -105 0 -104 -67 -4 -68 -3 68 -2 67 -2 0 -281 0 -281 -37 55 c-82 118 -176
169 -325 175 -147 6 -244 -32 -336 -133 -59 -64 -87 -122 -102 -206 -39 -223
125 -447 349 -477 139 -19 267 22 361 117 67 68 107 147 120 238 5 37 10 229
10 426 l0 357 358 -5 c196 -2 434 -7 528 -10 l172 -6 4 -24 c3 -14 3 -27 0
-30 -3 -3 -70 -5 -149 -5 -139 0 -177 -7 -195 -34 -4 -6 -8 -178 -8 -382 0
-447 -16 -406 159 -414 100 -4 110 -6 72 -14 -27 -5 -39 -11 -31 -16 9 -5 9
-9 1 -14 -6 -4 -8 -12 -5 -18 5 -8 1 -9 -10 -5 -9 4 -15 3 -12 -2 3 -4 -4 -24
-14 -44 -12 -21 -16 -39 -10 -42 6 -4 5 -11 -3 -19 -6 -8 -15 -12 -19 -9 -5 2
-8 -1 -8 -6 0 -6 -7 -11 -16 -11 -10 0 -14 -7 -12 -22 3 -23 -2 -25 -35 -13
-13 6 -16 3 -11 -8 3 -9 12 -13 21 -10 10 4 14 2 10 -4 -5 -7 26 -13 91 -17
53 -4 149 -11 212 -16 63 -5 161 -12 218 -16 l102 -6 0 161 0 161 95 0 94 0 3
-455 3 -454 23 -23 23 -23 902 3 c879 3 903 4 922 23 18 18 20 35 23 194 l3
175 35 0 34 0 0 305 c0 264 -2 305 -15 305 -8 0 -15 -8 -15 -17 0 -15 -2 -16
-10 -3 -8 13 -10 13 -14 0 -3 -8 -7 -37 -9 -65 -2 -27 -4 93 -5 268 l-2 317
133 0 c86 0 141 5 157 13 24 12 25 16 26 112 1 55 -1 88 -3 74 -3 -21 -8 -25
-29 -21 -13 2 -24 0 -24 -6 0 -6 -11 -9 -25 -7 -14 1 -25 -2 -25 -7 0 -6 -20
-8 -45 -6 -32 2 -45 -1 -45 -10 0 -7 -5 -10 -11 -6 -8 5 -10 55 -5 173 3 91 7
203 8 249 l2 82 118 0 c126 0 160 9 177 47 7 15 11 101 11 234 l0 210 195 -1
195 -2 2 -211 c1 -117 2 -223 3 -237 2 -17 -8 -34 -29 -52 l-31 -27 -3 -475
c-3 -560 -13 -516 113 -516 l75 0 1 -737 c1 -1037 2 -1065 17 -1070 9 -4 12
181 12 901 l0 906 45 0 45 0 1 -37 2 -38 6 35 6 35 243 5 c226 5 245 6 258 24
11 16 14 80 14 346 l0 327 413 6 c226 4 488 7 581 7 136 0 168 3 158 13 -10 9
-143 13 -582 15 l-570 3 0 124 c0 108 -3 128 -18 143 -17 17 -45 20 -266 26
-135 4 -291 4 -346 0 l-100 -7 0 247 0 246 68 0 67 0 39 -98 c92 -225 140
-335 143 -325 3 7 -3 99 -11 205 -9 107 -16 199 -16 206 0 9 53 12 210 12 222
0 262 7 274 47 7 24 10 364 8 791 l-2 342 -155 0 -155 0 0 314 c0 294 -1 315
-19 337 l-19 24 -735 0 c-709 0 -736 -1 -756 -19 -21 -19 -21 -22 -21 -621 l0
-602 -23 -21 c-20 -19 -35 -22 -105 -22 -71 0 -84 3 -109 24 l-28 24 4 693 c2
475 7 698 14 710 23 37 50 39 472 39 l415 0 0 94 c0 84 -3 98 -22 121 l-23 26
-415 2 -415 2 0 277 0 276 24 26 c31 33 17 54 -18 30z m-930 -1804 c17 -9 19
-22 19 -98 0 -55 -4 -92 -12 -100 -8 -8 -58 -12 -158 -12 -100 0 -150 4 -158
12 -16 16 -16 180 0 196 15 15 281 17 309 2z m1593 -324 l24 -23 -1 -562 c-2
-544 -3 -563 -21 -577 -14 -10 -50 -14 -123 -14 l-103 0 0 113 c0 109 -1 114
-26 138 -24 22 -33 24 -137 24 l-112 0 -5 -833 c-5 -811 -6 -834 -24 -848 -15
-11 -60 -14 -200 -14 -153 0 -182 2 -198 17 -16 14 -18 33 -18 140 l0 123 70
0 c62 0 74 3 95 25 l25 24 0 801 0 801 -25 24 c-21 22 -33 25 -100 25 l-75 0
0 67 c0 104 -3 103 220 103 243 0 234 6 238 -149 l4 -111 119 0 c173 0 159
-32 159 363 0 332 2 346 40 360 8 3 46 6 83 6 59 1 71 -2 91 -23z m-3444 -255
l0 -40 -135 -3 -135 -3 0 43 0 42 135 0 135 0 0 -39z m1110 12 l0 -22 -317 -3
c-237 -2 -324 -6 -341 -16 -16 -9 -79 -13 -217 -15 l-195 -2 0 42 0 42 535 -2
535 -2 0 -22z m223 18 c4 -1 7 -10 7 -21 0 -18 -7 -20 -70 -20 -62 0 -70 2
-70 19 0 13 8 21 23 23 19 4 37 3 110 -1z m-1333 -326 l0 -235 -135 0 -135 0
0 65 0 65 130 0 c80 0 130 4 130 10 0 6 -50 10 -130 10 l-130 0 0 155 0 154
133 4 c72 1 133 4 135 5 1 1 2 -104 2 -233z m420 -114 l0 -350 -345 -3 -345
-3 0 108 0 107 135 0 135 0 0 -44 c0 -46 16 -69 31 -45 5 8 9 139 9 291 0 255
1 277 18 281 9 2 95 5 190 6 l172 2 0 -350z m-730 -56 l0 -65 -209 0 c-115 0
-216 3 -225 6 -20 8 -31 66 -17 93 11 20 20 21 229 24 119 1 218 3 220 5 1 1
2 -27 2 -63z m730 -455 l0 -130 -202 -1 c-112 -1 -267 -3 -345 -5 l-143 -3 0
134 0 135 345 0 345 0 0 -130z m1549 -79 c24 -24 34 -170 29 -409 -3 -158 -4
-164 -27 -183 -22 -18 -43 -19 -326 -19 -283 0 -304 1 -326 19 -24 19 -24 21
-27 262 -4 269 -1 300 30 329 21 19 36 20 325 20 284 0 304 -1 322 -19z
m-1549 -181 l0 -100 -172 0 c-95 -1 -251 -3 -345 -6 l-173 -6 0 106 0 106 345
0 345 0 0 -100z m3981 -170 c18 -10 19 -23 19 -170 0 -186 4 -180 -109 -180
-58 0 -75 4 -92 21 -19 19 -20 30 -17 170 2 120 6 152 18 159 20 13 157 13
181 0z m-2327 -792 c24 -34 23 -363 -1 -390 -15 -16 -35 -18 -229 -18 -180 0
-215 2 -228 16 -24 24 -24 369 1 396 15 16 35 18 229 18 209 0 213 0 228 -22z"/>
<path d="M4485 4422 c-42 -10 -56 -44 -53 -124 5 -91 13 -98 120 -101 114 -3
118 1 118 113 0 65 -4 91 -15 100 -17 14 -126 22 -170 12z"/>
<path d="M2730 7888 c0 -62 -3 -124 -5 -138 -5 -22 -5 -23 4 -4 13 28 21 243
10 250 -5 3 -9 -44 -9 -108z"/>
<path d="M5494 7876 c-11 -8 -14 -20 -10 -33 14 -44 66 -38 66 7 0 32 -29 45
-56 26z"/>
<path d="M2969 7461 c-21 -17 -24 -30 -27 -100 -3 -63 0 -87 12 -106 16 -24
21 -25 114 -25 63 0 102 4 110 12 8 8 12 47 12 109 0 122 -7 129 -121 129 -61
0 -82 -4 -100 -19z"/>
<path d="M3500 7315 c0 -13 53 -15 419 -15 250 0 430 -4 445 -10 15 -5 31 -21
38 -35 6 -14 16 -25 22 -25 6 0 5 5 -2 12 -15 15 -16 32 -1 23 6 -4 5 2 -2 13
-31 50 -49 52 -499 52 -367 0 -420 -2 -420 -15z"/>
<path d="M3453 7032 l-30 -37 -209 -5 c-141 -4 -216 -10 -231 -18 -24 -13 -32
-52 -10 -52 8 0 7 -4 -3 -10 -12 -7 -12 -10 -1 -10 7 0 11 -6 8 -14 -3 -8 -2
-16 3 -18 5 -2 10 -24 11 -50 2 -26 5 -45 8 -43 2 3 14 -3 25 -13 12 -11 46
-24 76 -30 85 -17 352 -72 378 -77 l22 -5 0 204 c0 113 -4 207 -9 210 -4 3
-22 -11 -38 -32z"/>
<path d="M8394 6630 c-11 -4 -35 -25 -54 -46 l-34 -39 -263 -3 c-222 -2 -263
-5 -263 -17 0 -13 40 -15 265 -15 l264 0 7 -35 c19 -102 158 -139 233 -63 101
103 -19 273 -155 218z"/>
<path d="M1810 6619 c-103 -16 -187 -77 -238 -174 -23 -43 -27 -62 -27 -140 0
-81 3 -95 29 -143 101 -181 341 -221 499 -83 20 18 51 61 68 97 29 59 31 69
27 146 -3 68 -10 93 -33 137 -65 119 -191 182 -325 160z"/>
<path d="M7902 6118 c-21 -21 -14 -57 13 -70 22 -10 29 -9 47 10 19 18 20 25
10 47 -13 27 -49 34 -70 13z"/>
<path d="M2688 5823 c7 -3 16 -2 19 1 4 3 -2 6 -13 5 -11 0 -14 -3 -6 -6z"/>
<path d="M1570 5770 c-24 -24 -25 -48 -4 -78 19 -28 67 -29 94 -2 23 23 24 33
9 63 -23 43 -66 50 -99 17z"/>
<path d="M1232 5393 c-44 -21 -79 -65 -92 -114 -32 -118 69 -230 193 -216 129
16 197 151 132 263 -44 74 -154 106 -233 67z"/>
<path d="M8275 3556 c-38 -17 -60 -41 -80 -89 -20 -49 -19 -82 5 -131 28 -58
74 -86 139 -86 104 0 162 52 169 149 4 70 -19 117 -74 148 -45 26 -112 30
-159 9z"/>
<path d="M7295 3370 l-100 -5 2 -44 c1 -24 4 -45 7 -48 12 -12 84 -21 128 -16
56 7 71 24 66 81 l-3 37 -100 -5z"/>
<path d="M2335 2775 c-29 -28 -32 -55 -7 -83 29 -35 67 -38 96 -8 33 32 33 60
1 91 -31 32 -59 32 -90 0z"/>
<path d="M2742 2244 c-41 -28 -19 -94 32 -94 26 0 56 29 56 53 0 20 -34 57
-53 57 -7 0 -23 -7 -35 -16z"/>
</g>
</svg>
